<svg xmlns="http://www.w3.org/2000/svg" viewBox="0 0 16 16" width="16" height="16"><title>EXIOR — Final B tête ronde</title><rect x="0" y="0" width="16" height="16" rx="3.5" fill="#FFC400"/><path d="M8.6 2.8C11.4 2.8 13 4 13 5.8C13 7 13.6 8.4 13.6 10C13.6 12 12.3 13 10.2 13H6.4L3.6 14.3L2.6 13.4L4.4 11.4V8.2C4.4 7.7 4.6 7.3 4.8 7C4.5 6.6 4.4 6.1 4.4 5.4C4.4 3.8 5.4 3 7 3Z" fill="#0B0B0B"/><path d="M5.5 7.8C6 9.2 6.1 10.8 5.9 12.3C5.8 12.8 5.6 13.2 5.3 13.5" fill="none" stroke="#FFC400" stroke-width="1" stroke-linecap="round"/><rect x="6" y="4" width="3" height="1" rx="0.3" fill="#FFFFFF"/><rect x="10" y="4" width="3" height="1" rx="0.3" fill="#FFFFFF"/><rect x="7" y="5" width="2" height="2" rx="0.3" fill="#FFC400"/><rect x="10" y="5" width="2" height="2" rx="0.3" fill="#FFC400"/><rect x="7" y="12" width="1" height="2" fill="#0B0B0B"/><rect x="10" y="12" width="1" height="2" fill="#0B0B0B"/></svg>
